<svg width="50" height="51" viewBox="0 0 50 51" fill="none" xmlns="http://www.w3.org/2000/svg">
<g clip-path="url(#clip0_424_904)">
<path d="M1.55498 34.332C5.0873 43.8519 14.2509 50.6364 25 50.6364C35.7491 50.6364 44.9127 43.8519 48.445 34.332L25 32.1581L1.55498 34.332Z" fill="#FFDA44"/>
<path d="M25 0.636353C14.2509 0.636353 5.0873 7.42073 1.55498 16.9407L25 19.1146L48.445 16.9406C44.9127 7.42073 35.7491 0.636353 25 0.636353Z" fill="black"/>
<path d="M1.55498 16.9408C0.550098 19.6491 0 22.5783 0 25.6364C0 28.6944 0.550098 31.6237 1.55498 34.332H48.4451C49.45 31.6237 50 28.6944 50 25.6364C50 22.5783 49.45 19.6491 48.445 16.9408H1.55498Z" fill="#D80027"/>
</g>
<defs>
<clipPath id="clip0_424_904">
<rect width="50" height="50" fill="white" transform="translate(0 0.636353)"/>
</clipPath>
</defs>
</svg>
