<svg width="50" height="51" viewBox="0 0 50 51" fill="none" xmlns="http://www.w3.org/2000/svg">
<g clip-path="url(#clip0_424_904)">
<path d="M25 50.6364C38.8071 50.6364 50 39.4435 50 25.6364C50 11.8292 38.8071 0.636353 25 0.636353C11.1929 0.636353 0 11.8292 0 25.6364C0 39.4435 11.1929 50.6364 25 50.6364Z" fill="#F0F0F0"/>
<path d="M49.7884 22.3755H28.261H28.2609V0.847974C27.1935 0.709009 26.1052 0.636353 25 0.636353C23.8948 0.636353 22.8065 0.709009 21.7392 0.847974V22.3753V22.3754H0.211621C0.0726563 23.4429 0 24.531 0 25.6364C0 26.7417 0.0726563 27.8298 0.211621 28.8972H21.739H21.7391V50.4247C22.8065 50.5637 23.8948 50.6364 25 50.6364C26.1052 50.6364 27.1935 50.5638 28.2608 50.4247V28.8974V28.8973H49.7884C49.9273 27.8298 50 26.7417 50 25.6364C50 24.531 49.9273 23.4429 49.7884 22.3755V22.3755Z" fill="#D80027"/>
</g>
<defs>
<clipPath id="clip0_424_904">
<rect width="50" height="50" fill="white" transform="translate(0 0.636353)"/>
</clipPath>
</defs>
</svg>
