<svg width="50" height="51" viewBox="0 0 50 51" fill="none" xmlns="http://www.w3.org/2000/svg">
<g clip-path="url(#clip0_424_904)">
<path d="M35.8695 3.11702C32.5828 1.52776 28.8955 0.636353 25 0.636353C21.1045 0.636353 17.4172 1.52776 14.1305 3.11702L11.9565 25.6364L14.1305 48.1557C17.4172 49.7449 21.1045 50.6364 25 50.6364C28.8955 50.6364 32.5828 49.7449 35.8695 48.1557L38.0435 25.6364L35.8695 3.11702Z" fill="#FFDA44"/>
<path d="M24.9998 16.9408L27.158 23.5833H34.1432L28.4924 27.6891L30.6507 34.332L24.9998 30.2265L19.3489 34.332L21.5076 27.6891L15.8568 23.5833H22.8415L24.9998 16.9408Z" fill="#496E2D"/>
<path d="M14.1305 3.1179C5.76816 7.16155 0 15.7249 0 25.6364C0 35.5478 5.76816 44.1112 14.1305 48.1548V3.1179Z" fill="#496E2D"/>
<path d="M35.8695 3.1179V48.1548C44.2318 44.1112 50 35.5478 50 25.6364C50 15.7249 44.2318 7.16155 35.8695 3.1179Z" fill="#D80027"/>
</g>
<defs>
<clipPath id="clip0_424_904">
<rect width="50" height="50" fill="white" transform="translate(0 0.636353)"/>
</clipPath>
</defs>
</svg>
