<svg width="50" height="51" viewBox="0 0 50 51" fill="none" xmlns="http://www.w3.org/2000/svg">
<g clip-path="url(#clip0_424_904)">
<path d="M25 50.6364C38.8071 50.6364 50 39.4435 50 25.6364C50 11.8292 38.8071 0.636353 25 0.636353C11.1929 0.636353 0 11.8292 0 25.6364C0 39.4435 11.1929 50.6364 25 50.6364Z" fill="#D80027"/>
<path d="M25 37.5929C31.6034 37.5929 36.9565 32.2398 36.9565 25.6364C36.9565 19.0329 31.6034 13.6798 25 13.6798C18.3966 13.6798 13.0435 19.0329 13.0435 25.6364C13.0435 32.2398 18.3966 37.5929 25 37.5929Z" fill="#F0F0F0"/>
<path d="M26.473 21.0647L28.5241 23.8913L31.8461 22.8142L29.7917 25.6384L31.8427 28.465L28.5218 27.3837L26.4674 30.2079L26.4695 26.7157L23.1487 25.6344L26.4708 24.5573L26.473 21.0647Z" fill="#D80027"/>
<path d="M27.7174 32.7016C23.8154 32.7016 20.6522 29.5383 20.6522 25.6364C20.6522 21.7344 23.8154 18.5711 27.7174 18.5711C28.934 18.5711 30.0788 18.8787 31.0782 19.4203C29.5104 17.887 27.3663 16.9407 25 16.9407C20.1977 16.9407 16.3044 20.8338 16.3044 25.6363C16.3044 30.4387 20.1977 34.3319 25 34.3319C27.3663 34.3319 29.5105 33.3855 31.0782 31.8522C30.0788 32.394 28.934 32.7016 27.7174 32.7016Z" fill="#D80027"/>
</g>
<defs>
<clipPath id="clip0_424_904">
<rect width="50" height="50" fill="white" transform="translate(0 0.636353)"/>
</clipPath>
</defs>
</svg>
