<svg width="50" height="51" viewBox="0 0 50 51" fill="none" xmlns="http://www.w3.org/2000/svg">
<g clip-path="url(#clip0_424_904)">
<path d="M25 50.6364C38.8071 50.6364 50 39.4435 50 25.6364C50 11.8292 38.8071 0.636353 25 0.636353C11.1929 0.636353 0 11.8292 0 25.6364C0 39.4435 11.1929 50.6364 25 50.6364Z" fill="#D80027"/>
<path d="M39.7742 21.153H28.4877L25 10.419L21.5123 21.153H10.2258L19.3567 27.7869L15.8689 38.5212L25 31.8871L34.1311 38.5213L30.6433 27.787L39.7742 21.153ZM21.9123 26.9566L23.0917 23.3268H26.9082L28.0877 26.9566V26.9567L25 29.1999L21.9124 26.9567L21.9123 26.9566ZM26.202 21.153H23.7981L25 17.4537L26.202 21.153ZM29.9368 25.6131L29.1939 23.3269H33.0835L29.9368 25.6131ZM20.806 23.3269L20.0631 25.6131L16.9163 23.3269H20.806ZM20.004 32.8298L21.206 29.1307L23.1508 30.5436L20.004 32.8298ZM26.8492 30.5437L28.794 29.1308L29.996 32.8299L26.8492 30.5437Z" fill="#FFDA44"/>
</g>
<defs>
<clipPath id="clip0_424_904">
<rect width="50" height="50" fill="white" transform="translate(0 0.636353)"/>
</clipPath>
</defs>
</svg>
