<svg width="50" height="51" viewBox="0 0 50 51" fill="none" xmlns="http://www.w3.org/2000/svg">
<g clip-path="url(#clip0_424_904)">
<path d="M25 50.6364C38.8071 50.6364 50 39.4435 50 25.6364C50 11.8292 38.8071 0.636353 25 0.636353C11.1929 0.636353 0 11.8292 0 25.6364C0 39.4435 11.1929 50.6364 25 50.6364Z" fill="#F0F0F0"/>
<path d="M25 0.636353C14.2509 0.636353 5.0873 7.42073 1.55498 16.9407H48.4451C44.9127 7.42073 35.7491 0.636353 25 0.636353V0.636353Z" fill="#A2001D"/>
<path d="M25 50.6363C35.7491 50.6363 44.9127 43.852 48.445 34.332H1.55498C5.0873 43.852 14.2509 50.6363 25 50.6363Z" fill="#0052B4"/>
</g>
<defs>
<clipPath id="clip0_424_904">
<rect width="50" height="50" fill="white" transform="translate(0 0.636353)"/>
</clipPath>
</defs>
</svg>
