<svg width="50" height="51" viewBox="0 0 50 51" fill="none" xmlns="http://www.w3.org/2000/svg">
<g clip-path="url(#clip0_424_904)">
<path d="M0 25.6364C0 11.8293 11.193 0.636353 25 0.636353C38.807 0.636353 50 11.8293 50 25.6364L25 27.8103L0 25.6364Z" fill="#FFDA44"/>
<path d="M3.34531 38.1364C7.66806 45.6086 15.7466 50.6364 25 50.6364C34.2534 50.6364 42.3319 45.6086 46.6547 38.1364L25 36.5059L3.34531 38.1364Z" fill="#D80027"/>
<path d="M46.6547 38.1364C48.7818 34.4592 50 30.1902 50 25.6364H0C0 30.1902 1.21816 34.4592 3.34531 38.1364H46.6547Z" fill="#0052B4"/>
<path d="M25 34.332C29.8025 34.332 33.6956 30.4388 33.6956 25.6364C33.6956 20.8339 29.8025 16.9408 25 16.9408C20.1976 16.9408 16.3044 20.8339 16.3044 25.6364C16.3044 30.4388 20.1976 34.332 25 34.332Z" fill="#FFDA44"/>
<path d="M25 31.0711C22.0032 31.0711 19.5652 28.633 19.5652 25.6364V22.3755C19.5652 19.3787 22.0033 16.9408 25 16.9408C27.9967 16.9408 30.4348 19.3788 30.4348 22.3755V25.6364C30.4348 28.6331 27.9968 31.0711 25 31.0711Z" fill="#338AF3"/>
<path d="M33.6956 12.5929H27.1738C27.1738 11.3923 26.2005 10.419 24.9999 10.419C23.7993 10.419 22.826 11.3923 22.826 12.5929H16.3042C16.3042 13.7936 17.35 14.7668 18.5505 14.7668H18.4781C18.4781 15.9675 19.4514 16.9407 20.6521 16.9407C20.6521 18.1414 21.6253 19.1147 22.826 19.1147H27.1738C28.3745 19.1147 29.3478 18.1414 29.3478 16.9407C30.5484 16.9407 31.5217 15.9675 31.5217 14.7668H31.4493C32.6499 14.7668 33.6956 13.7935 33.6956 12.5929V12.5929Z" fill="black"/>
</g>
<defs>
<clipPath id="clip0_424_904">
<rect width="50" height="50" fill="white" transform="translate(0 0.636353)"/>
</clipPath>
</defs>
</svg>
