<svg width="50" height="51" viewBox="0 0 50 51" fill="none" xmlns="http://www.w3.org/2000/svg">
<g clip-path="url(#clip0_424_904)">
<path d="M25 50.6364C38.8071 50.6364 50 39.4435 50 25.6364C50 11.8292 38.8071 0.636353 25 0.636353C11.1929 0.636353 0 11.8292 0 25.6364C0 39.4435 11.1929 50.6364 25 50.6364Z" fill="#F0F0F0"/>
<path d="M50 25.6364C50 15.7248 44.2319 7.16077 35.8695 3.11702V48.1556C44.2319 44.1119 50 35.5479 50 25.6364V25.6364Z" fill="#D80027"/>
<path d="M0 25.6364C0 35.5479 5.76807 44.1119 14.1305 48.1557V3.11702C5.76807 7.16077 0 15.7248 0 25.6364Z" fill="#6DA544"/>
<path d="M18.4782 25.6364C18.4782 29.2382 21.3981 32.1581 25 32.1581C28.6019 32.1581 31.5218 29.2382 31.5218 25.6364V23.4624H18.4782V25.6364Z" fill="#6DA544"/>
<path d="M33.6956 21.2885H27.1738C27.1738 20.0879 26.2005 19.1146 24.9999 19.1146C23.7993 19.1146 22.826 20.0879 22.826 21.2885H16.3042C16.3042 22.4892 17.35 23.4624 18.5505 23.4624H18.4781C18.4781 24.6631 19.4514 25.6364 20.6521 25.6364C20.6521 26.837 21.6253 27.8103 22.826 27.8103H27.1738C28.3745 27.8103 29.3478 26.837 29.3478 25.6364C30.5484 25.6364 31.5217 24.6631 31.5217 23.4624H31.4492C32.6499 23.4624 33.6956 22.4892 33.6956 21.2885Z" fill="#FF9811"/>
</g>
<defs>
<clipPath id="clip0_424_904">
<rect width="50" height="50" fill="white" transform="translate(0 0.636353)"/>
</clipPath>
</defs>
</svg>
