<svg width="50" height="51" viewBox="0 0 50 51" fill="none" xmlns="http://www.w3.org/2000/svg">
<g clip-path="url(#clip0_424_904)">
<path d="M25 50.6364C38.8071 50.6364 50 39.4435 50 25.6364C50 11.8292 38.8071 0.636353 25 0.636353C11.1929 0.636353 0 11.8292 0 25.6364C0 39.4435 11.1929 50.6364 25 50.6364Z" fill="#F0F0F0"/>
<path d="M50 25.6364C50 11.8293 38.807 0.636353 25 0.636353C20.1094 0.636353 15.5475 2.04211 11.6941 4.46946L17.1739 6.79768L9.78262 9.93811L17.1739 13.0784L9.78262 16.2187L17.1739 19.3588L9.78262 22.4986L17.1739 25.6381L9.78262 28.7783L17.1739 31.9184L9.78262 35.0581L17.1739 38.1982L9.78262 41.3384L17.1739 44.4781L11.6966 46.8051C15.5494 49.2313 20.1104 50.6364 25 50.6364C38.807 50.6364 50 39.4434 50 25.6364Z" fill="#751A46"/>
</g>
<defs>
<clipPath id="clip0_424_904">
<rect width="50" height="50" fill="white" transform="translate(0 0.636353)"/>
</clipPath>
</defs>
</svg>
