<svg width="50" height="51" viewBox="0 0 50 51" fill="none" xmlns="http://www.w3.org/2000/svg">
<g clip-path="url(#clip0_424_904)">
<path d="M25 50.6364C38.8071 50.6364 50 39.4435 50 25.6364C50 11.8292 38.8071 0.636353 25 0.636353C11.1929 0.636353 0 11.8292 0 25.6364C0 39.4435 11.1929 50.6364 25 50.6364Z" fill="#F0F0F0"/>
<path d="M33.6956 25.6364C33.6956 27.8103 29.8024 33.245 25 33.245C20.1976 33.245 16.3044 27.8103 16.3044 25.6364C16.3044 20.8338 20.1976 16.9408 25 16.9408C29.8024 16.9408 33.6956 20.8338 33.6956 25.6364Z" fill="#D80027"/>
<path d="M33.6956 25.6364C33.6956 30.4389 29.8024 34.332 25 34.332C20.1976 34.332 16.3044 30.4389 16.3044 25.6364" fill="#0052B4"/>
<path d="M34.2163 33.3227L36.5217 31.0173L38.0587 32.5542L35.7532 34.8596L34.2163 33.3227Z" fill="black"/>
<path d="M30.3728 37.1652L32.6782 34.8598L34.2152 36.3967L31.9097 38.7022L30.3728 37.1652Z" fill="black"/>
<path d="M38.8275 37.9333L41.1329 35.6279L42.6699 37.1649L40.3644 39.4703L38.8275 37.9333Z" fill="black"/>
<path d="M34.9841 41.7764L37.2895 39.471L38.8265 41.008L36.521 43.3134L34.9841 41.7764Z" fill="black"/>
<path d="M36.5218 35.6282L38.8272 33.3228L40.3641 34.8597L38.0587 37.1651L36.5218 35.6282Z" fill="black"/>
<path d="M32.6793 39.4706L34.9847 37.1652L36.5217 38.7022L34.2163 41.0076L32.6793 39.4706Z" fill="black"/>
<path d="M38.8376 17.9542L32.6899 11.8065L34.2268 10.2695L40.3746 16.4173L38.8376 17.9542Z" fill="black"/>
<path d="M32.6887 16.4179L30.3833 14.1125L31.9202 12.5756L34.2256 14.881L32.6887 16.4179Z" fill="black"/>
<path d="M36.5311 20.2612L34.2257 17.9558L35.7626 16.4189L38.068 18.7243L36.5311 20.2612Z" fill="black"/>
<path d="M37.2991 11.8063L34.9937 9.50084L36.5306 7.96387L38.836 10.2693L37.2991 11.8063Z" fill="black"/>
<path d="M41.1436 15.6501L38.8382 13.3446L40.3751 11.8077L42.6805 14.1131L41.1436 15.6501Z" fill="black"/>
<path d="M8.86275 35.6238L15.0105 41.7716L13.4736 43.3086L7.32578 37.1608L8.86275 35.6238Z" fill="black"/>
<path d="M15.0102 37.1596L17.3156 39.465L15.7787 41.0019L13.4733 38.6965L15.0102 37.1596Z" fill="black"/>
<path d="M11.1675 33.3179L13.4729 35.6234L11.9359 37.1603L9.63053 34.8549L11.1675 33.3179Z" fill="black"/>
<path d="M13.4732 31.0119L19.621 37.1597L18.084 38.6966L11.9362 32.5488L13.4732 31.0119Z" fill="black"/>
<path d="M15.0099 9.49608L8.8621 15.6439L7.32513 14.1069L13.4729 7.95911L15.0099 9.49608Z" fill="black"/>
<path d="M17.3153 11.8012L11.1675 17.949L9.63056 16.4121L15.7784 10.2643L17.3153 11.8012Z" fill="black"/>
<path d="M19.6229 14.1081L13.4751 20.2559L11.9382 18.719L18.086 12.5712L19.6229 14.1081Z" fill="black"/>
</g>
<defs>
<clipPath id="clip0_424_904">
<rect width="50" height="50" fill="white" transform="translate(0 0.636353)"/>
</clipPath>
</defs>
</svg>
