<svg width="50" height="51" viewBox="0 0 50 51" fill="none" xmlns="http://www.w3.org/2000/svg">
<g clip-path="url(#clip0_424_904)">
<path d="M25 50.6364C38.8071 50.6364 50 39.4435 50 25.6364C50 11.8292 38.8071 0.636353 25 0.636353C11.1929 0.636353 0 11.8292 0 25.6364C0 39.4435 11.1929 50.6364 25 50.6364Z" fill="#F0F0F0"/>
<path d="M50 25.6364C50 39.4434 38.807 50.6364 25 50.6364C11.193 50.6364 0 39.4434 0 25.6364" fill="#496E2D"/>
<path d="M43.2631 18.0331C42.369 15.4977 39.9533 13.6799 37.112 13.6799H31.5218C27.9199 13.6799 25 16.5998 25 20.2017C25 21.3784 25.3133 22.5094 25.8585 23.4625C23.7826 23.4455 21.8614 23.4769 20.6521 23.4625C20.6521 20.9473 20.6521 17.7432 20.6521 17.0728L20.909 16.8159C22.0619 15.663 21.6774 13.7415 21.6774 13.7415C21.6774 13.7415 19.7561 13.3573 18.6032 14.5102L17.2596 15.8538H15.7608C12.4591 15.8538 9.78261 18.5304 9.78261 21.8321H14.1305V26.7234C14.1305 27.4388 14.2747 28.1203 14.5353 28.741L13.0435 29.9842H10.8695V27.8103H8.6956V32.1581H18.4782V36.506H16.3043V38.6799H20.6521V34.3321L22.6448 31.9407H27.3551L29.3478 34.3321V36.506H27.1738V38.6799H35.8694V26.7233C35.8694 24.9224 37.3294 23.4624 39.1303 23.4624C39.1766 23.4624 39.2225 23.4641 39.2684 23.4659C39.1783 23.1175 39.1303 22.7522 39.1303 22.3755C39.1305 20.0465 40.9618 18.1453 43.2631 18.0331V18.0331ZM31.5218 36.5059V31.9407H31.7029L33.6956 34.332V36.5059H31.5218Z" fill="#D80027"/>
</g>
<defs>
<clipPath id="clip0_424_904">
<rect width="50" height="50" fill="white" transform="translate(0 0.636353)"/>
</clipPath>
</defs>
</svg>
