<svg width="50" height="51" viewBox="0 0 50 51" fill="none" xmlns="http://www.w3.org/2000/svg">
<g clip-path="url(#clip0_424_904)">
<path d="M50 25.6364C50 22.5783 49.4499 19.649 48.445 16.9407L25 15.8537L1.55498 16.9406C0.550098 19.649 0 22.5783 0 25.6364C0 28.6944 0.550098 31.6238 1.55498 34.332L25 35.419L48.445 34.3321C49.4499 31.6238 50 28.6944 50 25.6364Z" fill="#F0F0F0"/>
<path d="M25 50.6363C35.7491 50.6363 44.9127 43.852 48.445 34.332H1.55498C5.0873 43.852 14.2509 50.6363 25 50.6363Z" fill="#0052B4"/>
<path d="M1.55498 16.9407H48.4451C44.9127 7.42073 35.7491 0.636353 25 0.636353C14.2509 0.636353 5.0873 7.42073 1.55498 16.9407V16.9407Z" fill="#D80027"/>
<path d="M31.5218 18.0278H27.1739L27.8986 12.5929L30.7971 10.419L33.6956 12.5929V16.9407L31.5218 18.0278Z" fill="#338AF3"/>
<path d="M18.4782 18.0278H22.8261L22.1014 12.5929L19.2028 10.419L16.3044 12.5929V16.9407L18.4782 18.0278Z" fill="#338AF3"/>
<path d="M27.8986 18.0278H22.1014V12.5929L25 10.419L27.8986 12.5929V18.0278Z" fill="#0052B4"/>
<path d="M16.3044 16.9408V28.8973C16.3044 31.7443 17.6796 34.2761 19.8007 35.8633L21.3225 35.4825L23.2428 37.4144C23.8106 37.5314 24.3982 37.593 25.0001 37.593C25.5987 37.593 26.1834 37.5322 26.7482 37.4163L28.9403 35.5911L30.1993 35.8598C32.3195 34.2727 33.6957 31.7435 33.6957 28.8973V16.9408H16.3044Z" fill="#F0F0F0"/>
<path d="M16.3044 16.9408H19.7826V20.419H16.3044V16.9408Z" fill="#D80027"/>
<path d="M23.2608 16.9408H26.7391V20.419H23.2608V16.9408Z" fill="#D80027"/>
<path d="M30.2174 16.9408H33.6956V20.419H30.2174V16.9408Z" fill="#D80027"/>
<path d="M19.7826 20.419H23.2608V23.8972H19.7826V20.419Z" fill="#D80027"/>
<path d="M26.7392 20.419H30.2174V23.8972H26.7392V20.419Z" fill="#D80027"/>
<path d="M16.3044 23.8961H19.7826V27.3743H16.3044V23.8961Z" fill="#D80027"/>
<path d="M19.7826 27.3744H23.2608V30.8527H19.7826V27.3744Z" fill="#D80027"/>
<path d="M23.2608 23.8961H26.7391V27.3743H23.2608V23.8961Z" fill="#D80027"/>
<path d="M30.2174 23.8961H33.6956V27.3743H30.2174V23.8961Z" fill="#D80027"/>
<path d="M26.7392 27.3744H30.2174V30.8527H26.7392V27.3744Z" fill="#D80027"/>
<path d="M23.2608 30.8527H26.7391V34.3309H23.2608V30.8527Z" fill="#D80027"/>
<path d="M19.7826 30.853H16.5288C16.8272 32.1459 17.414 33.329 18.2185 34.3312H19.7826V30.853Z" fill="#D80027"/>
<path d="M30.2174 34.3313H31.7815C32.5861 33.3291 33.1727 32.1459 33.4711 30.8531H30.2174V34.3313Z" fill="#D80027"/>
<path d="M19.7826 34.3313V35.849C20.7942 36.6102 21.9765 37.156 23.2608 37.4179V34.3313H19.7826Z" fill="#D80027"/>
<path d="M26.7392 34.3313V37.4179C28.0236 37.1562 29.2058 36.6102 30.2174 35.849V34.3313H26.7392Z" fill="#D80027"/>
</g>
<defs>
<clipPath id="clip0_424_904">
<rect width="50" height="50" fill="white" transform="translate(0 0.636353)"/>
</clipPath>
</defs>
</svg>
