<svg width="50" height="51" viewBox="0 0 50 51" fill="none" xmlns="http://www.w3.org/2000/svg">
<g clip-path="url(#clip0_424_904)">
<path d="M25 50.6364C38.8071 50.6364 50 39.4435 50 25.6364C50 11.8292 38.8071 0.636353 25 0.636353C11.1929 0.636353 0 11.8292 0 25.6364C0 39.4435 11.1929 50.6364 25 50.6364Z" fill="#F0F0F0"/>
<path d="M19.5653 22.3755H49.7884C48.1904 10.1092 37.7019 0.636353 25 0.636353C23.1333 0.636353 21.3152 0.8427 19.5652 1.23059V22.3755H19.5653Z" fill="#D80027"/>
<path d="M13.0435 22.3754V3.6761C6.17891 7.42161 1.26465 14.2918 0.211624 22.3755H13.0435V22.3754Z" fill="#D80027"/>
<path d="M13.0434 28.8972H0.211624C1.26465 36.9809 6.17891 43.8511 13.0435 47.5965L13.0434 28.8972Z" fill="#D80027"/>
<path d="M19.5652 28.8973V50.0421C21.3152 50.43 23.1333 50.6364 25 50.6364C37.7019 50.6364 48.1904 41.1635 49.7884 28.8972H19.5652V28.8973Z" fill="#D80027"/>
</g>
<defs>
<clipPath id="clip0_424_904">
<rect width="50" height="50" fill="white" transform="translate(0 0.636353)"/>
</clipPath>
</defs>
</svg>
