<svg width="50" height="51" viewBox="0 0 50 51" fill="none" xmlns="http://www.w3.org/2000/svg">
<g clip-path="url(#clip0_424_904)">
<path d="M33.6956 2.19133C30.9873 1.18645 28.058 0.636353 25 0.636353C21.942 0.636353 19.0127 1.18645 16.3044 2.19133L14.1305 25.6364L16.3044 49.0814C19.0127 50.0864 21.942 50.6364 25 50.6364C28.058 50.6364 30.9873 50.0864 33.6956 49.0814L35.8695 25.6364L33.6956 2.19133Z" fill="#FFDA44"/>
<path d="M50 25.6364C50 14.8873 43.2156 5.72366 33.6956 2.19143V49.0816C43.2156 45.549 50 36.3856 50 25.6364V25.6364Z" fill="#D80027"/>
<path d="M0 25.6364C0 36.3856 6.78437 45.549 16.3044 49.0815V2.19143C6.78437 5.72366 0 14.8873 0 25.6364V25.6364Z" fill="black"/>
</g>
<defs>
<clipPath id="clip0_424_904">
<rect width="50" height="50" fill="white" transform="translate(0 0.636353)"/>
</clipPath>
</defs>
</svg>
