<svg width="50" height="51" viewBox="0 0 50 51" fill="none" xmlns="http://www.w3.org/2000/svg">
<g clip-path="url(#clip0_424_904)">
<path d="M25 50.6364C38.8071 50.6364 50 39.4435 50 25.6364C50 11.8292 38.8071 0.636353 25 0.636353C11.1929 0.636353 0 11.8292 0 25.6364C0 39.4435 11.1929 50.6364 25 50.6364Z" fill="#6DA544"/>
<path d="M14.1305 30.5277C14.1305 32.3285 15.5904 33.7885 17.3913 33.7885H27.1739C27.1739 35.2893 28.3905 36.5059 29.8913 36.5059H33.1522C34.6529 36.5059 35.8695 35.2893 35.8695 33.7885V30.5277H14.1305Z" fill="#F0F0F0"/>
<path d="M36.1413 14.7668V22.3755C36.1413 23.5742 35.1661 24.5494 33.9674 24.5494V27.8103C36.9642 27.8103 39.4021 25.3722 39.4021 22.3755V14.7668H36.1413Z" fill="#F0F0F0"/>
<path d="M12.7718 22.3755C12.7718 23.5742 11.7966 24.5494 10.5979 24.5494V27.8103C13.5946 27.8103 16.0326 25.3722 16.0326 22.3755V14.7668H12.7718V22.3755Z" fill="#F0F0F0"/>
<path d="M31.25 14.7668H34.5108V22.3755H31.25V14.7668Z" fill="#F0F0F0"/>
<path d="M26.3587 19.1146C26.3587 19.4143 26.1148 19.658 25.8152 19.658C25.5156 19.658 25.2718 19.4142 25.2718 19.1146V14.7667H22.0109V19.1146C22.0109 19.4143 21.7671 19.658 21.4675 19.658C21.1679 19.658 20.924 19.4142 20.924 19.1146V14.7667H17.6631V19.1146C17.6631 21.2123 19.3697 22.919 21.4675 22.919C22.2754 22.919 23.0246 22.6651 23.6414 22.2338C24.2581 22.665 25.0074 22.919 25.8153 22.919C25.978 22.919 26.138 22.9075 26.2953 22.8875C26.0643 23.8396 25.2068 24.5493 24.1849 24.5493V27.8102C27.1816 27.8102 29.6196 25.3721 29.6196 22.3754V19.1146V14.7667H26.3588V19.1146H26.3587Z" fill="#F0F0F0"/>
<path d="M17.6631 24.5494H22.5544V27.8103H17.6631V24.5494Z" fill="#F0F0F0"/>
</g>
<defs>
<clipPath id="clip0_424_904">
<rect width="50" height="50" fill="white" transform="translate(0 0.636353)"/>
</clipPath>
</defs>
</svg>
