<svg width="50" height="51" viewBox="0 0 50 51" fill="none" xmlns="http://www.w3.org/2000/svg">
<g clip-path="url(#clip0_424_904)">
<path d="M25 50.6364C38.8071 50.6364 50 39.4435 50 25.6364C50 11.8292 38.8071 0.636353 25 0.636353C11.1929 0.636353 0 11.8292 0 25.6364C0 39.4435 11.1929 50.6364 25 50.6364Z" fill="#F0F0F0"/>
<path d="M33.1198 19.1146H29.8489C29.876 19.474 29.8913 19.8367 29.8913 20.2015C29.8913 22.6199 29.2868 24.9639 28.233 26.6324C27.9079 27.1471 27.3616 27.8739 26.6304 28.3641V19.1145H23.3695V28.3641C22.6384 27.8739 22.092 27.1472 21.7669 26.6324C20.713 24.9639 20.1086 22.6199 20.1086 20.2015C20.1086 19.8367 20.124 19.474 20.151 19.1146H16.8801C16.8591 19.4723 16.8477 19.8346 16.8477 20.2015C16.8477 26.9062 20.4285 32.158 24.9998 32.158C29.5711 32.158 33.152 26.9062 33.152 20.2015C33.1522 19.8346 33.1407 19.4723 33.1198 19.1146V19.1146Z" fill="#D80027"/>
<path d="M10.3261 12.5929H13.5869V14.7668H16.8478V12.5929H20.1086V14.7668H23.3694V12.5929H26.6303V14.7668H29.8911V12.5929H33.152V14.7668H36.4128V12.5929H39.6736V14.7668H47.519C43.4756 6.40442 34.9114 0.636353 25 0.636353C15.0886 0.636353 6.52442 6.40442 2.48067 14.7668H10.3261V12.5929Z" fill="#6DA544"/>
<path d="M39.6739 36.5059V38.6798H36.4131V36.5059H33.1522V38.6798H29.8914V36.5059H26.6306V38.6798H23.3697V36.5059H20.1089V38.6798H16.8481V36.5059H13.5869V38.6798H10.3261V36.5059H2.48067C6.52442 44.8683 15.0885 50.6364 25 50.6364C34.9115 50.6364 43.4756 44.8683 47.5193 36.5059H39.6739Z" fill="#D80027"/>
</g>
<defs>
<clipPath id="clip0_424_904">
<rect width="50" height="50" fill="white" transform="translate(0 0.636353)"/>
</clipPath>
</defs>
</svg>
