<svg width="50" height="51" viewBox="0 0 50 51" fill="none" xmlns="http://www.w3.org/2000/svg">
<g clip-path="url(#clip0_424_904)">
<path d="M25 50.6364C38.8071 50.6364 50 39.4435 50 25.6364C50 11.8292 38.8071 0.636353 25 0.636353C11.1929 0.636353 0 11.8292 0 25.6364C0 39.4435 11.1929 50.6364 25 50.6364Z" fill="#F0F0F0"/>
<path d="M23.9131 25.6364H50C50 23.3799 49.6992 21.194 49.1388 19.1146H23.9131V25.6364Z" fill="#D80027"/>
<path d="M23.9131 12.5929H46.3307C44.8003 10.0956 42.8436 7.88831 40.5621 6.07112H23.9131V12.5929Z" fill="#D80027"/>
<path d="M25 50.6364C30.8837 50.6364 36.2916 48.6028 40.5621 45.2016H9.4379C13.7084 48.6028 19.1163 50.6364 25 50.6364Z" fill="#D80027"/>
<path d="M3.66934 38.6798H46.3307C47.5593 36.675 48.5121 34.4836 49.1388 32.158H0.861237C1.4879 34.4836 2.44073 36.675 3.66934 38.6798V38.6798Z" fill="#D80027"/>
<path d="M11.5805 4.54045H13.8587L11.7396 6.08L12.549 8.57112L10.43 7.03157L8.31094 8.57112L9.01016 6.41907C7.14434 7.97327 5.50898 9.79417 4.16133 11.8231H4.89131L3.54238 12.8031C3.33223 13.1536 3.13066 13.5098 2.9375 13.8712L3.58164 15.8537L2.37988 14.9806C2.08115 15.6135 1.80791 16.2607 1.5623 16.9213L2.27197 19.1057H4.89131L2.77217 20.6452L3.58164 23.1364L1.4626 21.5968L0.193262 22.5191C0.0662109 23.5404 0 24.5806 0 25.6364H25C25 11.8293 25 10.2016 25 0.636353C20.0613 0.636353 15.4575 2.06897 11.5805 4.54045V4.54045ZM12.549 23.1364L10.43 21.5968L8.31094 23.1364L9.12041 20.6452L7.00127 19.1057H9.62061L10.43 16.6146L11.2394 19.1057H13.8587L11.7396 20.6452L12.549 23.1364ZM11.7396 13.3626L12.549 15.8537L10.43 14.3142L8.31094 15.8537L9.12041 13.3626L7.00127 11.8231H9.62061L10.43 9.33196L11.2394 11.8231H13.8587L11.7396 13.3626ZM21.5164 23.1364L19.3974 21.5968L17.2783 23.1364L18.0878 20.6452L15.9687 19.1057H18.588L19.3974 16.6146L20.2067 19.1057H22.8261L20.7069 20.6452L21.5164 23.1364ZM20.7069 13.3626L21.5164 15.8537L19.3974 14.3142L17.2783 15.8537L18.0878 13.3626L15.9687 11.8231H18.588L19.3974 9.33196L20.2067 11.8231H22.8261L20.7069 13.3626ZM20.7069 6.08L21.5164 8.57112L19.3974 7.03157L17.2783 8.57112L18.0878 6.08L15.9687 4.54045H18.588L19.3974 2.04934L20.2067 4.54045H22.8261L20.7069 6.08Z" fill="#0052B4"/>
</g>
<defs>
<clipPath id="clip0_424_904">
<rect width="50" height="50" fill="white" transform="translate(0 0.636353)"/>
</clipPath>
</defs>
</svg>
