<svg width="50" height="51" viewBox="0 0 50 51" fill="none" xmlns="http://www.w3.org/2000/svg">
<g clip-path="url(#clip0_424_904)">
<path d="M25 50.6364C38.8071 50.6364 50 39.4435 50 25.6364C50 11.8292 38.8071 0.636353 25 0.636353C11.1929 0.636353 0 11.8292 0 25.6364C0 39.4435 11.1929 50.6364 25 50.6364Z" fill="#F0F0F0"/>
<path d="M25 0.636353C15.0885 0.636353 6.52442 6.40442 2.48067 14.7668H47.5192C43.4756 6.40442 34.9114 0.636353 25 0.636353V0.636353Z" fill="#338AF3"/>
<path d="M25 50.6364C34.9114 50.6364 43.4756 44.8683 47.5193 36.5059H2.48067C6.52442 44.8683 15.0885 50.6364 25 50.6364Z" fill="#338AF3"/>
<path d="M32.4722 25.6364L29.4189 27.0726L31.0448 30.0295L27.7294 29.3952L27.3093 32.7445L25 30.2812L22.6906 32.7445L22.2706 29.3952L18.9552 30.0294L20.581 27.0725L17.5278 25.6364L20.5811 24.2001L18.9552 21.2433L22.2705 21.8775L22.6907 18.5282L25 20.9915L27.3094 18.5282L27.7294 21.8775L31.0449 21.2433L29.419 24.2002L32.4722 25.6364Z" fill="#FFDA44"/>
</g>
<defs>
<clipPath id="clip0_424_904">
<rect width="50" height="50" fill="white" transform="translate(0 0.636353)"/>
</clipPath>
</defs>
</svg>
