<svg width="50" height="51" viewBox="0 0 50 51" fill="none" xmlns="http://www.w3.org/2000/svg">
<g clip-path="url(#clip0_424_904)">
<path d="M50 25.6364C50 39.4434 38.807 50.6364 25 50.6364C11.193 50.6364 0 39.4434 0 25.6364C0 25.6422 25 0.639185 25 0.636353C38.807 0.636353 50 11.8293 50 25.6364Z" fill="#0052B4"/>
<path d="M25 0.636353C24.9986 0.636353 24.9972 0.63645 24.9958 0.63645L25 0.636353Z" fill="#F0F0F0"/>
<path d="M24.9331 25.6364H25C25 25.6137 25 25.592 25 25.5695C24.9777 25.5918 24.9555 25.6141 24.9331 25.6364Z" fill="#F0F0F0"/>
<path d="M25 13.6799C25 9.28098 25 6.39846 25 0.636452H24.9958C11.1906 0.638698 0 11.8306 0 25.6364H13.0435V18.2914L20.3884 25.6364H24.9332C24.9556 25.6141 24.9778 25.5918 25.0001 25.5695C25.0001 23.8852 25.0001 22.3824 25.0001 21.0249L17.6551 13.6799H25Z" fill="#F0F0F0"/>
<path d="M12.6479 3.89719C8.73788 6.12366 5.4873 9.37424 3.26083 13.2843V25.6364H9.78261V10.4191V10.419H25C25 8.36204 25 6.40247 25 3.89719H12.6479Z" fill="#D80027"/>
<path d="M25 22.562L16.1179 13.68H13.0435C13.0435 13.6799 13.0435 13.68 13.0435 13.68L24.9999 25.6364H25C25 25.6364 25 23.5167 25 22.562Z" fill="#D80027"/>
<path d="M15.0776 29.9842L16.4497 32.8532L19.548 32.137L18.1606 34.9986L20.6522 36.9744L17.5499 37.6737L17.5586 40.8537L15.0776 38.8642L12.5968 40.8537L12.6055 37.6737L9.50313 36.9744L11.9948 34.9986L10.6071 32.137L13.7057 32.8532L15.0776 29.9842Z" fill="#F0F0F0"/>
<path d="M37.4301 35.419L38.1161 36.8534L39.6653 36.4953L38.9715 37.9261L40.2174 38.9141L38.6662 39.2637L38.6705 40.8537L37.4301 39.8589L36.1897 40.8537L36.194 39.2637L34.6429 38.9141L35.8887 37.9261L35.1949 36.4953L36.7441 36.8534L37.4301 35.419Z" fill="#F0F0F0"/>
<path d="M31.0482 20.2016L31.7341 21.6362L33.2833 21.2779L32.5896 22.7087L33.8354 23.6967L32.2843 24.0463L32.2885 25.6363L31.0482 24.6415L29.8077 25.6363L29.8119 24.0463L28.2608 23.6967L29.5067 22.7087L28.8129 21.2779L30.3621 21.6362L31.0482 20.2016Z" fill="#F0F0F0"/>
<path d="M37.4301 11.5059L38.1161 12.9405L39.6653 12.5823L38.9716 14.0131L40.2173 15.001L38.6662 15.3507L38.6705 16.9407L37.4301 15.9459L36.1897 16.9407L36.194 15.3507L34.6429 15.001L35.8886 14.0131L35.1949 12.5823L36.7441 12.9405L37.4301 11.5059Z" fill="#F0F0F0"/>
<path d="M43.0047 18.0277L43.6906 19.4622L45.2398 19.104L44.5461 20.5348L45.7919 21.5228L44.2407 21.8725L44.245 23.4624L43.0047 22.4677L41.7643 23.4624L41.7685 21.8725L40.2174 21.5228L41.4632 20.5348L40.7694 19.104L42.3186 19.4622L43.0047 18.0277Z" fill="#F0F0F0"/>
<path d="M39.0186 25.6364L39.5581 27.2971H41.3044L39.8916 28.3236L40.4314 29.9842L39.0186 28.9578L37.6059 29.9842L38.1454 28.3236L36.7327 27.2971H38.4789L39.0186 25.6364Z" fill="#F0F0F0"/>
</g>
<defs>
<clipPath id="clip0_424_904">
<rect width="50" height="50" fill="white" transform="translate(0 0.636353)"/>
</clipPath>
</defs>
</svg>
