<svg width="50" height="51" viewBox="0 0 50 51" fill="none" xmlns="http://www.w3.org/2000/svg">
<g clip-path="url(#clip0_424_904)">
<path d="M25 50.6364C38.8071 50.6364 50 39.4435 50 25.6364C50 11.8292 38.8071 0.636353 25 0.636353C11.1929 0.636353 0 11.8292 0 25.6364C0 39.4435 11.1929 50.6364 25 50.6364Z" fill="#F0F0F0"/>
<path d="M50 25.6363C50 14.8872 43.2156 5.72365 33.6956 2.19133V49.0815C43.2156 45.549 50 36.3855 50 25.6363V25.6363Z" fill="#D80027"/>
<path d="M0 25.6363C0 36.3855 6.78447 45.549 16.3044 49.0814V2.19133C6.78447 5.72365 0 14.8872 0 25.6363Z" fill="#0052B4"/>
</g>
<defs>
<clipPath id="clip0_424_904">
<rect width="50" height="50" fill="white" transform="translate(0 0.636353)"/>
</clipPath>
</defs>
</svg>
